<svg xmlns="http://www.w3.org/2000/svg" width="692" height="406.501" viewBox="0 0 692 406.501">
  <g id="king2" transform="translate(-475.5 -31.5)">
    <text id="king" transform="translate(485.5 292.5)" fill="rgba(255,255,255,0.7)" stroke="#ff643e" stroke-width="10" font-size="348" font-family="BraesideLumberboy, Braeside Lumberboy"><tspan x="0" y="0">king</tspan></text>
    <g id="Rectangle_59" data-name="Rectangle 59" transform="translate(486 331)" fill="#ff643e" stroke="#fff" stroke-width="7">
      <rect width="672" height="20" rx="5" stroke="none"/>
      <rect x="3.5" y="3.5" width="665" height="13" rx="1.5" fill="none"/>
    </g>
    <path id="Exclusion_1" data-name="Exclusion 1" d="M2063-5213H1390v-64h673v64Zm-64.059-17.272v4.2h4.34a11.954,11.954,0,0,0,6.86-1.821c1.346-.927,2.029-1.728,2.029-2.38v-33.18a3.377,3.377,0,0,0-2.222-3.15,16.351,16.351,0,0,0-6.667-1.05h-4.34v4.2h3.149v33.18Zm-16.451-37.38v41.581h13.091v-4.2h-3.01v-33.18h3.01v-4.2Zm-57.609,37.38v4.2h4.48a21.4,21.4,0,0,0,5.67-.49c2.136-.6,3.219-1.852,3.219-3.711v-33.18a3.561,3.561,0,0,0-2.589-3.64,24.384,24.384,0,0,0-6.3-.56h-4.48v4.2h3.29v33.18Zm-7.491-37.38a22.068,22.068,0,0,0-5.88.49,3.734,3.734,0,0,0-2.939,3.709v33.18a3.377,3.377,0,0,0,2.2,3.15,16.112,16.112,0,0,0,6.615,1.05h4.551v-4.2h-3.29v-33.319h3.29v-4.061Zm-66.359,37.38v4.2h4.48a21.4,21.4,0,0,0,5.67-.49c2.136-.6,3.219-1.852,3.219-3.711v-33.18a3.562,3.562,0,0,0-2.589-3.64,24.386,24.386,0,0,0-6.3-.56h-4.48v4.2h3.29v33.18Zm-7.491-37.38a22.066,22.066,0,0,0-5.88.49,3.734,3.734,0,0,0-2.94,3.709v33.18a3.377,3.377,0,0,0,2.205,3.15,16.115,16.115,0,0,0,6.615,1.05h4.551v-4.2h-3.29v-33.319h3.29v-4.061Zm-75.32,0v41.581h10.08v-18.761h2.8v-4.059h-2.8v-14.561h2.8v-4.2Zm-111.23,0v41.581h10.08v-41.581Zm-60.9,37.38v4.2h4.691a16.11,16.11,0,0,0,6.614-1.05,3.377,3.377,0,0,0,2.2-3.15v-14.56a3.267,3.267,0,0,0-2.2-3.044,16.607,16.607,0,0,0-6.614-1.015h-4.691v4.059h3.43v14.56Zm-14.91,0v4.2h11.83v-4.2Zm-57.26-16.03v4.271h2.87v15.959h10.08v-37.8a3.069,3.069,0,0,0-2.223-2.834,17.989,17.989,0,0,0-6.668-.945h-4.059v3.78l2.87.07v17.5Zm-7.84-21.35a17.987,17.987,0,0,0-6.668.945,3.069,3.069,0,0,0-2.223,2.834v37.8h10.08v-15.959h3.221v-4.271h-3.221v-17.5l3.221-.07v-3.78Zm-75.46,0v41.581h10.08v-18.761h2.8v-4.059h-2.8v-14.561h2.8v-4.2Zm344.19,18.761v4.059h3.92v-4.059h-3.92Zm-196-18.761a23.363,23.363,0,0,0-6.019.49,3.583,3.583,0,0,0-2.87,3.709v14.561a3.269,3.269,0,0,0,2.222,3.044,16.861,16.861,0,0,0,6.667,1.015h4.2v-4.059H1590v-14.561h3.01v-4.2Zm-131.6,18.761v4.059h3.92v-4.059Zm327.6-18.761v4.2h8.609v-4.2h-8.609Zm-115.22,0v4.2H1674v-4.2Zm-19.6,0v4.2h4.41v-4.2Zm-53.9,0v4.2h10.57v-4.2Zm-138.88,0v4.2h8.61v-4.2Z" transform="translate(-905 5651)"  fill="rgba(255,255,255,0.8)"/>
  </g>
</svg>
