<svg xmlns="http://www.w3.org/2000/svg" width="951" height="475" viewBox="0 0 951 475">
  <g id="king-logo" transform="translate(-603 -1350)">
    <path id="Subtraction_1" data-name="Subtraction 1" d="M-5442.5,951a483.181,483.181,0,0,1-48.588-2.452,476.8,476.8,0,0,1-47.185-7.2c-15.31-3.131-30.633-7.068-45.544-11.7-14.743-4.582-29.434-9.955-43.665-15.97-14.1-5.96-28.078-12.688-41.546-20-13.374-7.259-26.559-15.263-39.189-23.789a478.931,478.931,0,0,1-70.354-58,478.936,478.936,0,0,1-58.064-70.3c-8.54-12.625-16.556-25.8-23.826-39.164-7.323-13.459-14.065-27.429-20.039-41.523-6.029-14.224-11.416-28.908-16.011-43.644-4.648-14.9-8.6-30.218-11.746-45.526a476.527,476.527,0,0,1-7.242-47.17A483.01,483.01,0,0,1-5918,476h951a483.052,483.052,0,0,1-2.5,48.575,476.383,476.383,0,0,1-7.242,47.17c-3.145,15.3-7.1,30.621-11.746,45.526-4.6,14.736-9.983,29.42-16.012,43.644-5.973,14.093-12.715,28.064-20.038,41.523-7.271,13.364-15.288,26.541-23.827,39.164a478.927,478.927,0,0,1-58.064,70.3,478.955,478.955,0,0,1-70.354,58c-12.629,8.525-25.814,16.529-39.189,23.789-13.47,7.312-27.448,14.04-41.546,20-14.23,6.014-28.921,11.387-43.665,15.97-14.913,4.635-30.235,8.572-45.544,11.7a476.8,476.8,0,0,1-47.186,7.2A483.181,483.181,0,0,1-5442.5,951Z" transform="translate(6521 874)" fill="#fbd397"/>
    <text id="king" transform="translate(837 1635)" fill="red" font-size="250" font-family="BraesideLumberboy, Braeside Lumberboy"><tspan x="0" y="0">king</tspan></text>
  </g>
</svg>
